<?xml version="1.0" encoding="UTF-8"?>
<svg id="Layer_2" data-name="Layer 2" xmlns="http://www.w3.org/2000/svg" viewBox="0 0 536.17 716.94">
  <defs>
    <style>
      .cls-1 {
        font-size: 30.58px;
      }

      .cls-1, .cls-2, .cls-3 {
        fill: #231f20;
        font-family: MyriadPro-Regular, 'Myriad Pro';
      }

      .cls-4 {
        fill: #0f1819;
      }

      .cls-2 {
        font-size: 33px;
      }

      .cls-3 {
        font-size: 53.8px;
      }

      .cls-5 {
        fill: #fdcca2;
      }
    </style>
  </defs>
  <g id="Layer_1-2" data-name="Layer 1">
    <path class="cls-5" d="M0,0h536.17v448.85c0,147.96-120.12,268.08-268.08,268.08h0C120.12,716.94,0,596.81,0,448.85V0H0Z"/>
    <g>
      <text class="cls-1" transform="translate(139.57 299.54) rotate(-41.8)"><tspan x="0" y="0">T</tspan></text>
      <text class="cls-1" transform="translate(154.11 286.64) rotate(-35.11)"><tspan x="0" y="0">O</tspan></text>
      <text class="cls-1" transform="translate(175.7 272.03) rotate(-27.99)"><tspan x="0" y="0">P</tspan></text>
      <text class="cls-1" transform="translate(194.64 262.28) rotate(-21.55)"><tspan x="0" y="0">P</tspan></text>
      <text class="cls-1" transform="translate(214.57 254.7) rotate(-14.97)"><tspan x="0" y="0">V</tspan></text>
      <text class="cls-1" transform="translate(235.93 249.21) rotate(-7.9)"><tspan x="0" y="0">U</tspan></text>
      <text class="cls-1" transform="translate(260.56 246.21) rotate(-1)"><tspan x="0" y="0">R</tspan></text>
      <text class="cls-1" transform="translate(282.01 246.01) rotate(5.95)"><tspan x="0" y="0">D</tspan></text>
      <text class="cls-1" transform="translate(307.21 249.1) rotate(12.8)"><tspan x="0" y="0">E</tspan></text>
      <text class="cls-1" transform="translate(326.75 253.78) rotate(19.09)"><tspan x="0" y="0">R</tspan></text>
      <text class="cls-1" transform="translate(347.23 261.22) rotate(25.5)"><tspan x="0" y="0">T</tspan></text>
      <text class="cls-1" transform="translate(365.45 270.36) rotate(30.33)"><tspan x="0" y="0"> </tspan></text>
      <text class="cls-1" transform="translate(375.5 276.26) rotate(35.3)"><tspan x="0" y="0">P</tspan></text>
      <text class="cls-1" transform="translate(390.82 287.19) rotate(41.3)"><tspan x="0" y="0">Å</tspan></text>
      <g>
        <text class="cls-2" transform="translate(130.67 597.6) rotate(41.88) scale(.82 1)"><tspan x="0" y="0">A</tspan></text>
        <text class="cls-2" transform="translate(148.91 613.38) rotate(35.94) scale(.82 1)"><tspan x="0" y="0">V</tspan></text>
        <text class="cls-2" transform="translate(168.58 626.91) rotate(30.83) scale(.82 1)"><tspan x="0" y="0"> </tspan></text>
        <text class="cls-2" transform="translate(180.28 633.74) rotate(25.79) scale(.82 1)"><tspan x="0" y="0">V</tspan></text>
        <text class="cls-2" transform="translate(200.92 643.27) rotate(19.06) scale(.82 1)"><tspan x="0" y="0">Å</tspan></text>
        <text class="cls-2" transform="translate(225.61 651.11) rotate(11.7) scale(.82 1)"><tspan x="0" y="0">R</tspan></text>
        <text class="cls-2" transform="translate(249.03 655.34) rotate(4.75) scale(.82 1)"><tspan x="0" y="0">E</tspan></text>
        <text class="cls-2" transform="translate(271.29 656.59) rotate(-1.09) scale(.82 1)"><tspan x="0" y="0"> </tspan></text>
        <text class="cls-2" transform="translate(285.84 656.17) rotate(-6.45) scale(.82 1)"><tspan x="0" y="0">K</tspan></text>
        <text class="cls-2" transform="translate(309.71 652.93) rotate(-14.08) scale(.82 1)"><tspan x="0" y="0">U</tspan></text>
        <text class="cls-2" transform="translate(335.73 645.72) rotate(-22.03) scale(.82 1)"><tspan x="0" y="0">N</tspan></text>
        <text class="cls-2" transform="translate(360.73 634.92) rotate(-29.71) scale(.82 1)"><tspan x="0" y="0">D</tspan></text>
        <text class="cls-2" transform="translate(383.98 620.87) rotate(-36.33) scale(.82 1)"><tspan x="0" y="0">E</tspan></text>
        <text class="cls-2" transform="translate(401.66 607.34) rotate(-42.13) scale(.82 1)"><tspan x="0" y="0">R</tspan></text>
      </g>
      <g>
        <path d="M73.27,429.82l7.9-16.87c1.27-2.71,5.1-2.76,6.44-.08l8.77,17.55c.54,1.07,1.57,1.8,2.76,1.95l18.45,2.26c3.09.38,4.25,4.25,1.88,6.27l-13.29,11.33c-.95.81-1.41,2.06-1.21,3.3l3.31,20.32c.47,2.88-2.53,5.08-5.14,3.77l-16.82-8.47c-1-.5-2.18-.51-3.19-.01l-17.41,8.6c-2.59,1.28-5.55-.88-5.12-3.74l2.8-18.54c.17-1.11-.19-2.23-.97-3.03l-13.11-13.46c-2.02-2.07-.87-5.56,1.99-6.02l19.3-3.11c1.17-.19,2.17-.94,2.67-2.01Z"/>
        <path d="M449.66,429.82l7.9-16.87c1.27-2.71,5.1-2.76,6.44-.08l8.77,17.55c.54,1.07,1.57,1.8,2.76,1.95l18.45,2.26c3.09.38,4.25,4.25,1.88,6.27l-13.29,11.33c-.95.81-1.41,2.06-1.21,3.3l3.31,20.32c.47,2.88-2.53,5.08-5.14,3.77l-16.82-8.47c-1-.5-2.18-.51-3.19-.01l-17.41,8.6c-2.59,1.28-5.55-.88-5.12-3.74l2.8-18.54c.17-1.11-.19-2.23-.97-3.03l-13.11-13.46c-2.02-2.07-.87-5.56,1.99-6.02l19.3-3.11c1.17-.19,2.17-.94,2.67-2.01Z"/>
        <path d="M355.56,429.82l7.9-16.87c1.27-2.71,5.1-2.76,6.44-.08l8.77,17.55c.54,1.07,1.57,1.8,2.76,1.95l18.45,2.26c3.09.38,4.25,4.25,1.88,6.27l-13.29,11.33c-.95.81-1.41,2.06-1.21,3.3l3.31,20.32c.47,2.88-2.53,5.08-5.14,3.77l-16.82-8.47c-1-.5-2.18-.51-3.19-.01l-17.41,8.6c-2.59,1.28-5.55-.88-5.12-3.74l2.8-18.54c.17-1.11-.19-2.23-.97-3.03l-13.11-13.46c-2.02-2.07-.87-5.56,1.99-6.02l19.3-3.11c1.17-.19,2.17-.94,2.67-2.01Z"/>
        <path d="M261.46,429.82l7.9-16.87c1.27-2.71,5.1-2.76,6.44-.08l8.77,17.55c.54,1.07,1.57,1.8,2.76,1.95l18.45,2.26c3.09.38,4.25,4.25,1.88,6.27l-13.29,11.33c-.95.81-1.41,2.06-1.21,3.3l3.31,20.32c.47,2.88-2.53,5.08-5.14,3.77l-16.82-8.47c-1-.5-2.18-.51-3.19-.01l-17.41,8.6c-2.59,1.28-5.55-.88-5.12-3.74l2.8-18.54c.17-1.11-.19-2.23-.97-3.03l-13.11-13.46c-2.02-2.07-.87-5.56,1.99-6.02l19.3-3.11c1.17-.19,2.17-.94,2.67-2.01Z"/>
        <path d="M167.37,429.82l7.9-16.87c1.27-2.71,5.1-2.76,6.44-.08l8.77,17.55c.54,1.07,1.57,1.8,2.76,1.95l18.45,2.26c3.09.38,4.25,4.25,1.88,6.27l-13.29,11.33c-.95.81-1.41,2.06-1.21,3.3l3.31,20.32c.47,2.88-2.53,5.08-5.14,3.77l-16.82-8.47c-1-.5-2.18-.51-3.19-.01l-17.41,8.6c-2.59,1.28-5.55-.88-5.12-3.74l2.8-18.54c.17-1.11-.19-2.23-.97-3.03l-13.11-13.46c-2.02-2.07-.87-5.56,1.99-6.02l19.3-3.11c1.17-.19,2.17-.94,2.67-2.01Z"/>
      </g>
      <text class="cls-3" transform="translate(209.06 566.25)"><tspan x="0" y="0">2024</tspan></text>
      <g>
        <path class="cls-4" d="M197.96,368.11l-.02.03c-1.82,2.58-5.45,2.96-7.45,2.96-5.52-.06-11.41-2.79-11.41-10.27v-.13c-.05-2.63-.06-4.99-.06-6.5,0-6.14.04-14.78.06-18.03,0-.61,0-1.01,0-1.17h-7.04l13.58-13.52h.6v12.38h9.5v1.3h-9.5v26.32c0,2.55.64,4.66,1.86,6.06.53.61,1.19,1.1,1.92,1.43.74.33,1.54.5,2.34.49,1.85,0,3.74-.76,5.19-2.09l.06-.06.37.81Z"/>
        <path class="cls-4" d="M209.32,333.83h-7.14v36.92h7.14v-36.92Z"/>
        <path class="cls-4" d="M209.32,321.65h-7.14v7.14h7.14v-7.14Z"/>
        <path class="cls-4" d="M348.84,333.59c-4.01,0-7.46,1.06-10.27,3.14-2.8,2.08-4.81,5.07-5.99,8.9l-.02.08h8.56v-.05c.23-2.36.56-5.06,1.64-7.21,1.25-2.49,3.24-3.71,6.08-3.71,5.5,0,7.76,2.19,8.04,7.82-3.95,3.55-8.73,5.82-12.95,7.82-6.53,3.11-12.18,5.79-12.18,11.98,0,2.68,1.21,8.93,12.37,8.93,5.53,0,10.74-2.86,12.82-4.16v3.59h7.2v-26.15c0-9.06-8.31-10.96-15.3-10.96ZM357.08,366.08l-.03.02c-.91.59-5.6,3.5-9.5,3.58h-.18c-.14,0-.28,0-.42,0-4.56-.12-6.78-2.3-6.78-6.62,0-4.58,3.94-7.97,9.39-12.66,2.24-1.93,4.79-4.12,7.41-6.71l.1-.1v.02l.02-.02v22.5Z"/>
        <path class="cls-4" d="M325.81,348.94c0,1.11-.01,2.24-.03,3.43-.02,1.26-.03,2.55-.03,3.9v14.47h-7.14v-17.85c0-8.79-.37-12.38-4.15-12.38-2.63,0-6.5,2.15-10,12.4-2.25,6.56-3.46,14.06-3.46,17.78v.06h-7.52v-16.58c0-9.22-.18-13.65-4.28-13.65-2.63,0-6.48,2.15-9.94,12.4-2.2,6.53-3.39,14.04-3.39,17.78v.06h-7.64v-17.86c0-8.79-.37-12.38-4.15-12.38-2.63,0-6.5,2.15-10,12.4-2.25,6.57-3.46,14.06-3.46,17.78v.06h-7.52v-16.58c0-9.22-.18-13.65-4.28-13.65-2.63,0-6.48,2.15-9.94,12.4-2.2,6.53-3.39,14.04-3.39,17.78v.06h-7.59v-36.92h7.07v30.98c.73-5.22,2.35-12.73,4.83-19.16,1.39-3.6,2.9-6.45,4.48-8.48,1.82-2.34,3.76-3.57,5.74-3.66h.83c8.74,0,9.44,6.69,9.44,15.43,0,1.11-.01,2.24-.03,3.43-.02,1.26-.03,2.55-.03,3.9v8.85c.74-5.32,2.34-12.91,4.74-19.31,1.37-3.65,2.86-6.54,4.44-8.59,1.82-2.38,3.75-3.63,5.74-3.72h.83c1.01-.01,2.01.1,2.99.32,2.28.55,3.88,1.82,4.89,3.89.86,1.77,1.32,4.08,1.48,7.5h0c.05,1.07.08,2.25.08,3.73,0,1.11-.01,2.24-.03,3.43-.02,1.26-.03,2.55-.03,3.9v8.45c.74-5.23,2.36-12.73,4.84-19.13,1.39-3.58,2.9-6.42,4.48-8.44,1.82-2.33,3.75-3.56,5.72-3.65h.83c8.74,0,9.44,6.69,9.44,15.43,0,1.11-.01,2.24-.03,3.43-.02,1.26-.03,2.55-.03,3.9v8.85c.74-5.32,2.34-12.91,4.74-19.31,1.37-3.65,2.86-6.54,4.44-8.59,1.82-2.38,3.75-3.63,5.74-3.72h.83c8.75,0,9.45,6.69,9.45,15.43Z"/>
      </g>
    </g>
  </g>
</svg>